<?xml version="1.0" encoding="UTF-8" standalone="no"?>
<!-- Created with Inkscape (http://www.inkscape.org/) -->

<svg
   xmlns:dc="http://purl.org/dc/elements/1.1/"
   xmlns:cc="http://creativecommons.org/ns#"
   xmlns:rdf="http://www.w3.org/1999/02/22-rdf-syntax-ns#"
   xmlns:svg="http://www.w3.org/2000/svg"
   xmlns="http://www.w3.org/2000/svg"
   xmlns:sodipodi="http://sodipodi.sourceforge.net/DTD/sodipodi-0.dtd"
   xmlns:inkscape="http://www.inkscape.org/namespaces/inkscape"
   width="376.78687"
   height="335.37064"
   viewBox="0 0 99.691522 88.733483"
   version="1.1"
   id="svg8"
   inkscape:version="0.92.1 r15371"
   sodipodi:docname="logo_andresve.svg">
  <defs
     id="defs2">
    <inkscape:perspective
       sodipodi:type="inkscape:persp3d"
       inkscape:vp_x="0 : 143.81915 : 1"
       inkscape:vp_y="0 : 1123.8569 : 0"
       inkscape:vp_z="210 : 143.81915 : 1"
       inkscape:persp3d-origin="105 : 88.188231 : 1"
       id="perspective3773" />
  </defs>
  <sodipodi:namedview
     id="base"
     pagecolor="#ffffff"
     bordercolor="#666666"
     borderopacity="1.0"
     inkscape:pageopacity="0.0"
     inkscape:pageshadow="2"
     inkscape:zoom="0.98994949"
     inkscape:cx="208.53215"
     inkscape:cy="222.04171"
     inkscape:document-units="px"
     inkscape:current-layer="layer1"
     showgrid="false"
     inkscape:snap-others="false"
     inkscape:window-width="1920"
     inkscape:window-height="1178"
     inkscape:window-x="1358"
     inkscape:window-y="-8"
     inkscape:window-maximized="1"
     units="px" />
  <metadata
     id="metadata5">
    <rdf:RDF>
      <cc:Work
         rdf:about="">
        <dc:format>image/svg+xml</dc:format>
        <dc:type
           rdf:resource="http://purl.org/dc/dcmitype/StillImage" />
        <dc:title></dc:title>
      </cc:Work>
    </rdf:RDF>
  </metadata>
  <g
     inkscape:label="Capa 1"
     inkscape:groupmode="layer"
     id="layer1"
     transform="translate(-21.114292,-26.523237)">
    <rect
       id="rect3682"
       width="99.691528"
       height="88.733482"
       x="21.114292"
       y="26.523237"
       style="fill:#000000;stroke-width:0.26458332" />
    <rect
       style="fill:#ececec;stroke-width:0.26458332"
       id="rect3684"
       width="6.6817379"
       height="12.561667"
       x="34.477768"
       y="94.676964" />
    <rect
       style="fill:#ececec;stroke-width:0.26458332"
       id="rect3686"
       width="7.2162771"
       height="21.916101"
       x="45.703087"
       y="85.322533" />
    <rect
       style="fill:#ececec;stroke-width:0.26458332"
       id="rect3688"
       width="8.0180855"
       height="31.003265"
       x="57.195675"
       y="75.700829" />
    <rect
       style="fill:#ececec;stroke-width:0.26458332"
       id="rect3690"
       width="7.7508163"
       height="40.892239"
       x="69.222809"
       y="65.010048" />
    <rect
       style="fill:#ececec;stroke-width:0.26458332"
       id="rect3692"
       width="8.2853556"
       height="51.850288"
       x="80.982666"
       y="54.051998" />
    <rect
       y="54.051998"
       x="80.982666"
       height="51.850288"
       width="8.2853556"
       id="rect3717"
       style="fill:#ececec;stroke-width:0.26458332" />
    <rect
       style="fill:#ececec;stroke-width:0.26458332"
       id="rect3721"
       width="8.2853556"
       height="51.850288"
       x="80.982666"
       y="54.051998" />
    <rect
       style="fill:#ffffff;stroke-width:0.26458332"
       id="rect3723"
       width="34.210499"
       height="70.559151"
       x="-47.039436"
       y="77.037178" />
    <rect
       y="54.051998"
       x="80.982666"
       height="51.850288"
       width="8.2853556"
       id="rect3725"
       style="fill:#e6e6e6;stroke-width:0.26458332" />
    <rect
       style="fill:#ffffff;stroke-width:0.26458332"
       id="rect3727"
       width="65.21376"
       height="56.393867"
       x="54.790253"
       y="138.2419" />
    <flowRoot
       xml:space="preserve"
       id="flowRoot3737"
       style="font-style:normal;font-weight:normal;font-size:40px;line-height:1.25;font-family:sans-serif;letter-spacing:0px;word-spacing:0px;fill:#f9f9f9;fill-opacity:1;stroke:none"><flowRegion
         id="flowRegion3739"
         style="fill:#f9f9f9"><rect
           id="rect3741"
           width="70.710678"
           height="234.35539"
           x="361.63461"
           y="165.90523"
           style="fill:#f9f9f9" /></flowRegion><flowPara
         id="flowPara3743" /></flowRoot>    <g
       sodipodi:type="inkscape:box3d"
       id="g3823"
       style="fill:#f9f9f9"
       inkscape:perspectiveID="#perspective3773"
       inkscape:corner0="-1.5718513 : 0.050153409 : 0 : 1"
       inkscape:corner7="-1.6692706 : 0.0046361126 : 0.25 : 1">
      <path
         sodipodi:type="inkscape:box3dside"
         id="path3825"
         style="fill:#f9f9f9;fill-rule:evenodd;stroke:none;stroke-linejoin:round"
         inkscape:box3dsidetype="6"
         d="M -162.49988,180.98822 V 91.533276 L -468.24214,23.046053 V 181.98568 Z"
         points="-162.49988,91.533276 -468.24214,23.046053 -468.24214,181.98568 -162.49988,180.98822 " />
      <path
         sodipodi:type="inkscape:box3dside"
         id="path3829"
         style="fill:#f9f9f9;fill-rule:evenodd;stroke:none;stroke-linejoin:round"
         inkscape:box3dsidetype="3"
         d="m -162.49988,180.98822 26.72695,-0.18692 v -76.43385 l -26.72695,-12.834174 z"
         points="-135.77293,180.8013 -135.77293,104.36745 -162.49988,91.533276 -162.49988,180.98822 " />
      <path
         sodipodi:type="inkscape:box3dside"
         id="path3827"
         style="fill:#f9f9f9;fill-rule:evenodd;stroke:none;stroke-linejoin:round"
         inkscape:box3dsidetype="5"
         d="m -162.49988,180.98822 26.72695,-0.18692 -218.76517,0.65424 -113.70404,0.53014 z"
         points="-135.77293,180.8013 -354.5381,181.45554 -468.24214,181.98568 -162.49988,180.98822 " />
      <path
         sodipodi:type="inkscape:box3dside"
         id="path3835"
         style="fill:#f9f9f9;fill-rule:evenodd;stroke:none;stroke-linejoin:round"
         inkscape:box3dsidetype="11"
         d="m -468.24214,181.98568 113.70404,-0.53014 V 59.44621 L -468.24214,23.046053 Z"
         points="-354.5381,181.45554 -354.5381,59.44621 -468.24214,23.046053 -468.24214,181.98568 " />
      <path
         sodipodi:type="inkscape:box3dside"
         id="path3833"
         style="fill:#f9f9f9;fill-rule:evenodd;stroke:none;stroke-linejoin:round"
         inkscape:box3dsidetype="13"
         d="M -162.49988,91.533276 -135.77293,104.36745 -354.5381,59.44621 -468.24214,23.046053 Z"
         points="-135.77293,104.36745 -354.5381,59.44621 -468.24214,23.046053 -162.49988,91.533276 " />
      <path
         sodipodi:type="inkscape:box3dside"
         id="path3831"
         style="fill:#f9f9f9;fill-rule:evenodd;stroke:none;stroke-linejoin:round"
         inkscape:box3dsidetype="14"
         d="M -135.77293,180.8013 V 104.36745 L -354.5381,59.44621 v 122.00933 z"
         points="-135.77293,104.36745 -354.5381,59.44621 -354.5381,181.45554 -135.77293,180.8013 " />
    </g>
    <path
       style="fill:#80b3ff;stroke-width:1.01015258"
       d="m 413.4315,407.24794 c -5.55583,-2.70027 -17.94283,-8.43503 -27.52665,-12.74388 l -17.42513,-7.8343 V 269.97124 153.27271 l 27.78406,27.78407 27.78406,27.78406 -0.25741,101.65834 -0.2574,101.65835 z"
       id="path3853"
       inkscape:connector-curvature="0"
       transform="scale(0.26458333)" />
    <path
       style="fill:#0066ff;stroke-width:1.01015258"
       d="m 382.23855,406.9391 c -14.78995,-6.16951 -26.89082,-11.5798 -26.89082,-12.02287 0,-0.44307 3.24533,-2.36086 7.21183,-4.26176 l 7.21183,-3.45617 4.23826,2.48378 c 2.33104,1.36608 4.54054,2.1815 4.91,1.81204 0.36946,-0.36946 0.67174,-0.14142 0.67174,0.50676 0,0.64818 0.34093,1.08505 0.75762,0.97082 0.41669,-0.11423 2.17733,0.5495 3.91254,1.47494 1.73521,0.92545 3.43984,1.39772 3.78807,1.04949 0.34823,-0.34823 0.63315,-0.0271 0.63315,0.71372 0,0.74078 0.28713,1.05974 0.63807,0.7088 0.35094,-0.35094 2.54878,0.48167 4.88409,1.85025 2.33531,1.36859 4.54831,2.18605 4.91777,1.81659 0.36946,-0.36946 0.67174,-0.14142 0.67174,0.50676 0,0.64819 0.34093,1.10945 0.75762,1.02503 1.13311,-0.22957 21.46574,9.48909 21.46574,10.26026 0,0.3659 -2.8999,1.81583 -6.44422,3.22206 l -6.44422,2.55679 z"
       id="path3855"
       inkscape:connector-curvature="0"
       transform="scale(0.26458333)" />
    <path
       style="fill:#0044aa;stroke-width:1.01015258"
       d="M 353.32743,282.54703 V 170.68837 l 7.18036,-8.45756 c 3.94919,-4.65167 7.35846,-8.45757 7.57614,-8.45757 0.21768,0 0.39579,52.75679 0.39579,117.23731 0,77.90098 -0.33894,117.02784 -1.01016,116.613 -0.55558,-0.34337 -1.01015,-0.14291 -1.01015,0.44546 0,0.58837 -0.34093,0.97971 -0.75761,0.86963 -1.29128,-0.34111 -5.3033,1.30106 -5.3033,2.17071 0,0.45334 -0.7955,1.05299 -1.76777,1.33255 -0.97227,0.27955 -2.56326,0.83577 -3.53554,1.23604 -1.67732,0.69052 -1.76776,-4.99504 -1.76776,-111.13091 z"
       id="path3857"
       inkscape:connector-curvature="0"
       transform="scale(0.26458333)" />
    <path
       style="fill:#0055d4;stroke-width:1.01015258"
       d="m 353.99408,368.77216 c -0.36666,-13.42398 -0.66665,-63.35716 -0.66665,-110.96263 v -86.5554 l 6.81853,-7.98283 6.81853,-7.98283 0.61787,16.66752 c 0.87659,23.64674 1.01371,132.90009 0.22294,177.63141 l -0.66692,37.72529 -2.61233,1.12536 c -1.43678,0.61895 -3.69641,1.93896 -5.0214,2.93335 -4.74819,3.56349 -4.80201,3.34276 -5.51057,-22.59924 z"
       id="path3859"
       inkscape:connector-curvature="0"
       transform="scale(0.26458333)" />
    <path
       style="fill:#aaccff;stroke-width:1.01015258"
       d="m 416.46196,408.61798 c -6.85687,-3.59775 -33.88091,-16.02987 -41.66879,-19.16929 l -6.31345,-2.54505 V 270.09279 153.28194 l 27.89014,27.77231 27.89015,27.7723 -0.61339,73.74114 c -0.33736,40.55762 -0.61458,86.12813 -0.61603,101.26779 -0.001,15.13966 -0.34356,27.5055 -0.76025,27.47963 -0.41669,-0.0259 -3.03046,-1.23958 -5.80838,-2.69713 z"
       id="path3861"
       inkscape:connector-curvature="0"
       transform="scale(0.26458333)" />
    <path
       style="fill:#5599ff;stroke-width:1.01015258"
       d="m 404.34013,415.85599 c -1.66675,-0.79083 -12.80368,-5.56765 -24.74874,-10.61517 -11.94505,-5.04751 -22.12293,-9.57176 -22.61751,-10.05388 -0.51556,-0.50256 1.9383,-2.27584 5.75109,-4.15601 l 6.65033,-3.27942 6.67013,3.25222 c 3.66857,1.78873 8.80825,4.11211 11.4215,5.16308 2.61325,1.05096 7.47878,3.23087 10.81229,4.84425 3.3335,1.61338 9.8111,4.67407 14.39467,6.80154 4.58357,2.12747 8.33376,4.18793 8.33376,4.5788 0,0.80977 -10.67899,5.06539 -12.46426,4.96705 -0.64504,-0.0355 -2.53651,-0.71164 -4.20326,-1.50246 z"
       id="path3863"
       inkscape:connector-curvature="0"
       transform="scale(0.26458333)" />
    <path
       style="fill:#afc6e9;stroke-width:1.01015258"
       d="m 423.20461,410.35199 c -0.25096,-1.98885 -0.46453,-2.16652 -1.00527,-0.83626 -0.59573,1.46554 -2.29114,0.92295 -12.80845,-4.09915 -6.667,-3.18354 -18.59943,-8.68424 -26.5165,-12.22375 l -14.39467,-6.4355 V 270.01502 153.27271 l 27.78406,27.78407 27.78406,27.78406 -0.26229,102.01826 c -0.14426,56.11005 -0.40569,100.88185 -0.58094,99.49289 z"
       id="path3865"
       inkscape:connector-curvature="0"
       transform="scale(0.26458333)" />
    <path
       style="fill:#5f8dd3;stroke-width:1.01015258"
       d="m 383.632,406.70392 c -13.6118,-5.86609 -25.14573,-11.04675 -25.63094,-11.51256 -0.48709,-0.46762 1.88034,-2.24147 5.28595,-3.96062 5.89842,-2.97751 8.09877,-3.4292 9.2555,-1.89998 0.72097,0.95313 34.51394,16.16137 36.09077,16.24234 0.69448,0.0357 1.26269,0.47048 1.26269,0.96625 0,0.49578 0.45457,0.62047 1.01015,0.2771 0.55559,-0.34337 1.01016,-0.21195 1.01016,0.29205 0,0.50399 1.81827,1.73628 4.04061,2.73841 2.22233,1.00213 4.04061,2.17493 4.04061,2.60622 0,0.59811 -10.33055,5.07673 -11.40211,4.94317 -0.11806,-0.0147 -11.35158,-4.82628 -24.96339,-10.69238 z"
       id="path3867"
       inkscape:connector-curvature="0"
       transform="scale(0.26458333)" />
    <path
       style="fill:#2c5aa0;stroke-width:1.01015258"
       d="m 355.17036,390.42999 c -0.83781,-2.02832 -1.28059,-32.77483 -1.59698,-110.89276 l -0.43776,-108.08632 6.91443,-8.04014 6.91444,-8.04014 0.625,23.19243 c 0.79763,29.59851 0.79243,131.26829 -0.009,174.99172 l -0.61601,33.61144 -5.31746,3.0351 -5.31746,3.03512 z"
       id="path3869"
       inkscape:connector-curvature="0"
       transform="scale(0.26458333)" />
    <flowRoot
       xml:space="preserve"
       id="flowRoot3871"
       style="font-style:normal;font-weight:normal;font-size:40px;line-height:1.25;font-family:sans-serif;letter-spacing:0px;word-spacing:0px;fill:#ffffff;fill-opacity:1;stroke:none"
       transform="scale(0.26458333)"><flowRegion
         id="flowRegion3873"
         style="fill:#ffffff"><rect
           id="rect3875"
           width="185.86807"
           height="66.670067"
           x="-833.37585"
           y="308.33673"
           style="fill:#ffffff" /></flowRegion><flowPara
         id="flowPara3877" /></flowRoot>    <text
       xml:space="preserve"
       style="font-style:normal;font-weight:normal;font-size:10.58333302px;line-height:1.25;font-family:sans-serif;letter-spacing:0px;word-spacing:0px;fill:#000000;fill-opacity:1;stroke:none;stroke-width:0.26458332"
       x="60.402912"
       y="38.817635"
       id="text3881"><tspan
         sodipodi:role="line"
         id="tspan3879"
         x="60.402912"
         y="48.473129"
         style="fill:#ffffff;stroke-width:0.26458332" /></text>
    <flowRoot
       xml:space="preserve"
       id="flowRoot3917"
       style="font-style:normal;font-variant:normal;font-weight:normal;font-stretch:normal;font-size:13.33333302px;line-height:1.25;font-family:sans-serif;-inkscape-font-specification:'sans-serif, Normal';font-variant-ligatures:normal;font-variant-caps:normal;font-variant-numeric:normal;font-feature-settings:normal;text-align:start;letter-spacing:0px;word-spacing:0px;writing-mode:lr-tb;text-anchor:start;fill:#000000;fill-opacity:1;stroke:none"><flowRegion
         id="flowRegion3919"><rect
           id="rect3921"
           width="7.0710678"
           height="31.31473"
           x="144.45181"
           y="129.53973" /></flowRegion><flowPara
         id="flowPara3923" /></flowRoot>    <flowRoot
       xml:space="preserve"
       id="flowRoot73"
       style="font-style:normal;font-variant:normal;font-weight:normal;font-stretch:normal;font-size:13.33333302px;line-height:1.25;font-family:sans-serif;-inkscape-font-specification:'sans-serif, Normal';font-variant-ligatures:normal;font-variant-caps:normal;font-variant-numeric:normal;font-feature-settings:normal;text-align:start;letter-spacing:0px;word-spacing:0px;writing-mode:lr-tb;text-anchor:start;fill:#f9f9f9;fill-opacity:1;stroke:none"
       transform="scale(0.26458333)"><flowRegion
         id="flowRegion75"
         style="fill:#f9f9f9"><rect
           id="rect77"
           width="221.2234"
           height="54.548237"
           x="97.984795"
           y="132.57019"
           style="fill:#f9f9f9" /></flowRegion><flowPara
         id="flowPara79"
         style="font-style:normal;font-variant:normal;font-weight:normal;font-stretch:normal;font-size:18.66666603px;font-family:'Eras Bold ITC';-inkscape-font-specification:'Eras Bold ITC, Normal';font-variant-ligatures:normal;font-variant-caps:normal;font-variant-numeric:normal;font-feature-settings:normal;text-align:start;writing-mode:lr-tb;text-anchor:start">Ing. Civil </flowPara><flowPara
         id="flowPara107"><flowSpan
   style="font-style:normal;font-variant:normal;font-weight:normal;font-stretch:normal;font-size:17.33333397px;font-family:sans-serif;-inkscape-font-specification:'sans-serif, Normal';font-variant-ligatures:normal;font-variant-caps:normal;font-variant-numeric:normal;font-feature-settings:normal;text-align:start;writing-mode:lr-tb;text-anchor:start"
   id="flowSpan109">Andrés Velásquez G</flowSpan>.</flowPara></flowRoot>    <flowRoot
       xml:space="preserve"
       id="flowRoot89"
       style="font-style:normal;font-variant:normal;font-weight:normal;font-stretch:normal;font-size:13.33333302px;line-height:1.25;font-family:sans-serif;-inkscape-font-specification:'sans-serif, Normal';font-variant-ligatures:normal;font-variant-caps:normal;font-variant-numeric:normal;font-feature-settings:normal;text-align:start;letter-spacing:0px;word-spacing:0px;writing-mode:lr-tb;text-anchor:start;fill:#000000;fill-opacity:1;stroke:none"><flowRegion
         id="flowRegion91"><rect
           id="rect93"
           width="11.111695"
           height="25.234013"
           x="-592.95953"
           y="294.21439" /></flowRegion><flowPara
         id="flowPara95" /></flowRoot>    <flowRoot
       xml:space="preserve"
       id="flowRoot97"
       style="font-style:normal;font-variant:normal;font-weight:normal;font-stretch:normal;font-size:13.33333302px;line-height:1.25;font-family:sans-serif;-inkscape-font-specification:'sans-serif, Normal';font-variant-ligatures:normal;font-variant-caps:normal;font-variant-numeric:normal;font-feature-settings:normal;text-align:start;letter-spacing:0px;word-spacing:0px;writing-mode:lr-tb;text-anchor:start;fill:#000000;fill-opacity:1;stroke:none"><flowRegion
         id="flowRegion99"><rect
           id="rect101"
           width="202.0305"
           height="37.375645"
           x="-584.8783"
           y="260.85956" /></flowRegion><flowPara
         id="flowPara103" /></flowRoot>  </g>
</svg>
